<svg width="33" height="33" viewBox="0 0 33 33" fill="none" xmlns="http://www.w3.org/2000/svg">
<path d="M31.346 13.2085H16.1427V19.4528H24.8301C24.6505 20.4404 24.2724 21.3814 23.7188 22.2188C23.1652 23.0562 22.4476 23.7727 21.6093 24.3249V28.3748H26.8261C28.4154 26.8441 29.6652 24.9965 30.4944 22.9517C31.3236 20.9069 31.7137 18.7106 31.6394 16.5054C31.64 15.3999 31.5419 14.2965 31.346 13.2085V13.2085Z" fill="#4285F4"/>
<path d="M26.8261 28.3747L21.6093 24.3249C19.9816 25.3724 18.0778 25.9091 16.1427 25.866C14.1302 25.8409 12.1762 25.1853 10.5559 23.9913C8.93561 22.7974 7.73059 21.1253 7.11051 19.2106H1.71704V23.3886C3.05984 26.0636 5.12016 28.3124 7.6677 29.8837C10.2152 31.4549 13.1496 32.2867 16.1427 32.2859C20.0723 32.3925 23.8941 30.9933 26.8261 28.3747Z" fill="#34A853"/>
<path d="M6.60439 16.1445C6.60667 15.1 6.77757 14.0627 7.1105 13.0727V8.89465H1.71703C0.587981 11.1444 3.05176e-05 13.6268 3.05176e-05 16.144C3.05176e-05 18.6612 0.587981 21.1436 1.71703 23.3934L7.1105 19.2154C6.77767 18.2256 6.60677 17.1887 6.60439 16.1445Z" fill="#FBBC05"/>
<path d="M22.3129 8.83194L26.9429 4.20191C24.0206 1.45914 20.1502 -0.0462683 16.1427 0.00108415C13.1501 -8.94545e-05 10.2161 0.830948 7.66859 2.40133C5.1211 3.9717 3.0605 6.21955 1.71704 8.89367L7.11051 13.0717C7.73059 11.1569 8.93561 9.48487 10.5559 8.29094C12.1762 7.09701 14.1302 6.44135 16.1427 6.41628C18.4371 6.37832 20.6541 7.24627 22.3129 8.83194Z" fill="#EA4335"/>
</svg>
